{"title":"Super 2010 Limited BRRip XViD","uid":6564389,"size":1466477190,"categoryP":"video","categoryS":"hd___movies","magnet":"?xt=urn:btih:9e8e97216fa83e14b3997cab173965ad73a1ed89&amp;dn=Super+2010+Limited+BRRip+XViD&amp;tr=udp%3A%2F%2Ftracker.openbittorrent.com%3A80&amp;tr=udp%3A%2F%2Fopen.demonii.com%3A1337&amp;tr=udp%3A%2F%2Ftracker.coppersurfer.tk%3A6969&amp;tr=udp%3A%2F%2Fexodus.desync.com%3A6969","seeders":2,"leechers":0,"uploader":"Zelulzseeder","files":3,"time":1311613890,"description":"Plot:\n\nAfter his wife falls under the influence of a drug dealer, an everyday guy transforms himself into Crimson Bolt, a superhero with the best intentions, though he lacks for heroic skills. \n\nDirector: James Gunn\nWriter: James Gunn\nStars: Rainn Wilson, Ellen Page and Liv Tyler\n\n &lt;a href=&quot;\nhttp://www.imdb.com/title/tt1512235/&quot; rel=&quot;nofollow&quot; target=&quot;_NEW&quot;&gt;\nhttp://www.imdb.com/title/tt1512235/&lt;/a&gt;\n \n\n\nUsers: (3,770 votes) 41 reviews | Critics: 114 reviews Metascore: 50/100 (based on 26 reviews from Metacritic.com) \n\n\n\nFormat : AVI\nFormat/Info : Audio Video Interleave\nFile size : 1.36 GiB\nDuration : 1h 35mn\nOverall bit rate : 2 050 Kbps\nWriting application : VirtualDubMod 1.5.10.2 (build 2540/release)\nWriting library : VirtualDubMod build 2540/release\n\nVideo\nID : 0\nFormat : MPEG-4 Visual\nFormat profile : Advanced Simple@L5\nFormat settings, BVOP : 2\nFormat settings, QPel : No\nFormat settings, GMC : No warppoints\nFormat settings, Matrix : Default (H.263)\nCodec ID : XVID\nCodec ID/Hint : XviD\nDuration : 1h 35mn\nBit rate : 1 592 Kbps\nWidth : 720 pixels\nHeight : 384 pixels\nDisplay aspect ratio : 1.875\nFrame rate : 23.976 fps\nColor space : YUV\nChroma subsampling : 4:2:0\nBit depth : 8 bits\nScan type : Progressive\nCompression mode : Lossy\nBits/(Pixel*Frame) : 0.240\nStream size : 1.06 GiB (78%)\nWriting library : XviD 63\n\nAudio\nID : 1\nFormat : AC-3\nFormat/Info : Audio Coding 3\nMode extension : CM (complete main)\nCodec ID : 2000\nDuration : 1h 35mn\nBit rate mode : Constant\nBit rate : 448 Kbps\nChannel(s) : 6 channels\nChannel positions : Front: L C R, Side: L R, LFE\nSampling rate : 48.0 KHz\nBit depth : 16 bits\nCompression mode : Lossy\nStream size : 305 MiB (22%)\nAlignment : Split accross interleaves\nInterleave, duration : 42 ms (1.00 video frame)\nInterleave, preload duration : 500 ms\n\n\nSource Used \n\nSuper LIMITED 720p BluRay x264-REFiNED\n\nEnjoy\n","torrent":{"xt":"urn:btih:9e8e97216fa83e14b3997cab173965ad73a1ed89","amp;dn":"Super+2010+Limited+BRRip+XViD","amp;tr":["udp%3A%2F%2Ftracker.openbittorrent.com%3A80","udp%3A%2F%2Fopen.demonii.com%3A1337","udp%3A%2F%2Ftracker.coppersurfer.tk%3A6969","udp%3A%2F%2Fexodus.desync.com%3A6969"],"infoHash":"9e8e97216fa83e14b3997cab173965ad73a1ed89","infoHashBuffer":{"type":"Buffer","data":[158,142,151,33,111,168,62,20,179,153,124,171,23,57,101,173,115,161,237,137]},"announce":[],"urlList":[]}}